HIERARCHY
ROOT Hips
{
	OFFSET -3.958830 18.904000 13.208200
	CHANNELS 6 Xposition Yposition Zposition Zrotation Yrotation Xrotation 
	JOINT LHipJoint
	{
		OFFSET 0.000000 0.000000 0.000000
		CHANNELS 3 Zrotation Yrotation Xrotation
		JOINT LeftUpLeg
		{
			OFFSET 1.800000 -1.400000 0.085000
			CHANNELS 3 Zrotation Yrotation Xrotation
			JOINT LeftLeg
			{
				OFFSET 2.215000 -6.000000 0.000000
				CHANNELS 3 Zrotation Yrotation Xrotation
				JOINT LeftFoot
				{
					OFFSET 2.500000 -6.900000 0.000000
					CHANNELS 3 Zrotation Yrotation Xrotation
					JOINT LeftToeBase
					{
						OFFSET 0.200000 -0.500000 1.950000
						CHANNELS 3 Zrotation Yrotation Xrotation
						End Site
						{
							OFFSET 0.000000 0.000000 0.000000
						}
					}
				}
			}
		}
	}
	JOINT RHipJoint
	{
		OFFSET 0.000000 0.000000 0.000000
		CHANNELS 3 Zrotation Yrotation Xrotation
		JOINT RightUpLeg
		{
			OFFSET -1.800000 -1.400000 0.085000
			CHANNELS 3 Zrotation Yrotation Xrotation
			JOINT RightLeg
			{
				OFFSET -2.215000 -6.000000 0.000000
				CHANNELS 3 Zrotation Yrotation Xrotation
				JOINT RightFoot
				{
					OFFSET -2.500000 -6.900000 0.000000
					CHANNELS 3 Zrotation Yrotation Xrotation
					JOINT RightToeBase
					{
						OFFSET -0.200000 -0.500000 1.950000
						CHANNELS 3 Zrotation Yrotation Xrotation
						End Site
						{
							OFFSET 0.000000 0.000000 0.000000
						}
					}
				}
			}
		}
	}
	JOINT LowerBack
	{
		OFFSET 0.000000 0.000000 0.000000
		CHANNELS 3 Zrotation Yrotation Xrotation
		JOINT Spine
		{
			OFFSET -0.087000 1.940000 -0.288900
			CHANNELS 3 Zrotation Yrotation Xrotation
			JOINT Spine1
			{
				OFFSET 0.000000 1.950000 0.060000
				CHANNELS 3 Zrotation Yrotation Xrotation
				JOINT Neck
				{
					OFFSET 0.000000 0.000000 0.000000
					CHANNELS 3 Zrotation Yrotation Xrotation
					JOINT Neck1
					{
						OFFSET 0.000000 1.600000 0.340000
						CHANNELS 3 Zrotation Yrotation Xrotation
						JOINT Head
						{
							OFFSET 0.000000 1.667000 -0.240000
							CHANNELS 3 Zrotation Yrotation Xrotation
							End Site
							{
								OFFSET 0.000000 0.000000 0.000000
							}
						}
					}
				}
				JOINT LeftShoulder
				{
					OFFSET 0.000000 0.000000 0.000000
					CHANNELS 3 Zrotation Yrotation Xrotation
					JOINT LeftArm
					{
						OFFSET 2.700000 1.550000 -0.730000
						CHANNELS 3 Zrotation Yrotation Xrotation
						JOINT LeftForeArm
						{
							OFFSET 5.450000 0.000000 0.000000
							CHANNELS 3 Zrotation Yrotation Xrotation
							JOINT LeftHand
							{
								OFFSET 3.450000 0.000000 0.000000
								CHANNELS 3 Zrotation Yrotation Xrotation
								JOINT LeftHandIndex1
								{
									OFFSET 0.750000 0.000000 0.000000
									CHANNELS 3 Zrotation Yrotation Xrotation
									End Site
									{
										OFFSET 0.000000 0.000000 0.000000
									}
								}
							}
						}
					}
				}
				JOINT RightShoulder
				{
					OFFSET 0.000000 0.000000 0.000000
					CHANNELS 3 Zrotation Yrotation Xrotation
					JOINT RightArm
					{
						OFFSET -2.700000 1.550000 -0.730000
						CHANNELS 3 Zrotation Yrotation Xrotation
						JOINT RightForeArm
						{
							OFFSET -5.450000 0.000000 0.000000
							CHANNELS 3 Zrotation Yrotation Xrotation
							JOINT RightHand
							{
								OFFSET -3.450000 0.000000 0.000000
								CHANNELS 3 Zrotation Yrotation Xrotation
								JOINT RightHandIndex1
								{
									OFFSET -0.750000 0.000000 0.000000
									CHANNELS 3 Zrotation Yrotation Xrotation
									End Site
									{
										OFFSET 0.000000 0.000000 0.000000
									}
								}
							}
						}
					}
				}
			}
		}
	}
}
MOTION
Frames: 7
Frame Time: 0.016667
0.008090 15.815420 0.320920 -4.843748 -1.865445 -6.631564 -15.023017 12.962354 2.363315 6.778060 -2.694645 15.586663 -3.595528 11.142419 38.852338 0.661794 9.184097 1.696735 0.839670 0.259570 0.798010 18.669040 -9.024967 4.731868 -7.215647 6.786585 -48.405946 17.232609 -17.988973 49.285196 -1.540281 -8.837828 1.387079 0.091750 0.046970 0.421220 -4.352197 -2.751726 -8.175253 21.989630 -14.308574 32.495321 -9.714938 -10.545258 15.563012 2.499666 -6.401799 -11.275194 -16.287532 6.998026 38.881311 -7.023950 5.964470 -17.747290 -6.907565 -5.748663 2.662617 -0.925242 -2.939115 -3.286688 122.904548 -63.645127 -104.808822 -3.623678 2.749747 0.841320 -0.019690 0.198350 0.324960 2.468053 5.623866 8.864087 21.030448 -15.587484 -8.886983 136.740371 58.522403 89.961295 1.891139 -1.964589 -0.096110 0.108610 -0.288540 -0.344270 
0.040750 15.611350 0.335820 -3.386632 -0.883892 -5.300510 -15.029659 12.659996 2.302289 4.661832 -2.667775 15.580034 -3.136363 10.761198 39.674129 0.674693 9.106243 1.677678 0.920360 0.348280 0.888360 18.763274 -8.657126 5.133292 -10.155067 6.282272 -53.627501 18.087107 -20.158783 53.499013 -1.804199 -9.906778 1.044395 0.121630 -0.054610 0.434690 -4.489072 -2.728105 -8.343328 22.151163 -14.100387 28.912810 -9.890901 -11.113936 16.502497 2.328906 -5.585550 -11.362322 -15.396577 7.733657 43.006219 -8.645970 6.524160 -19.001260 -6.075143 -5.533663 1.756194 8.614175 1.230390 -1.572854 100.890970 -71.337303 -77.488964 -3.145148 0.610784 0.866840 -0.067900 0.269730 0.316600 1.776796 4.715102 9.641156 13.457086 -20.507304 -4.573260 152.118080 53.208561 108.305142 1.848490 -2.229409 -0.046340 0.069210 -0.342620 -0.362260 
0.077670 15.471430 0.362010 -2.598702 -0.327152 -3.469474 -15.046708 12.418236 2.208743 2.915905 -2.755524 14.394656 -2.727549 10.455845 40.894838 0.648536 9.120966 1.654261 0.911470 0.336060 0.910390 18.846005 -8.310723 5.443260 -12.111993 5.917283 -57.981481 18.375025 -21.501405 56.081585 -1.935010 -10.550812 0.857784 0.120280 -0.068530 0.432660 -4.592682 -2.791776 -8.374256 22.920302 -14.226876 25.083534 -10.124711 -11.888983 15.963474 2.192434 -5.251442 -10.760254 -15.787355 8.131238 45.705121 -10.424590 6.539460 -18.852000 -4.317754 -6.638906 -0.789149 13.466629 5.010419 -3.100077 51.199862 -82.943402 -39.462453 -3.200108 2.578500 0.878760 -0.061070 0.280170 0.294390 0.362471 4.971057 10.720922 8.654345 -22.260588 -1.207427 157.835195 49.432225 116.287095 1.881518 -2.306773 -0.055040 0.086720 -0.327870 -0.380940 
0.089680 15.448380 0.374540 -2.094446 -1.540177 -4.237619 -15.063248 12.372198 2.305645 1.656810 -2.035291 15.222452 -2.645579 10.563157 41.145613 0.698180 9.219321 1.620900 0.871990 0.282730 0.884550 18.835473 -8.285741 5.463962 -12.001329 6.735944 -57.848565 17.211217 -21.028290 57.547651 -1.948699 -10.640809 0.824982 0.078840 -0.055880 0.469740 -4.555322 -2.749389 -8.437808 22.634033 -13.830030 26.428045 -9.829559 -11.698900 16.208613 2.322240 -5.438848 -11.278614 -16.118586 8.232224 45.656710 -11.275890 6.453720 -18.756780 -3.992125 -6.443638 0.333392 15.842984 7.048926 -1.015430 24.624222 -83.505020 -19.499343 -3.396199 3.299191 0.880300 -0.048100 0.280320 0.274030 -0.131957 5.302546 10.528672 8.046334 -20.394854 -0.906410 158.818866 47.897344 116.253095 1.885803 -2.287210 -0.042250 0.067810 -0.286520 -0.377170 
0.096390 15.485440 0.395360 -2.631572 -1.908047 -3.676057 -15.058443 12.436340 2.301950 1.667480 -1.845938 14.639167 -2.224884 10.416138 41.081392 0.734199 9.156580 1.662620 0.790530 0.199440 0.825580 18.822994 -8.342148 5.447565 -10.811372 7.476451 -57.588533 16.165682 -20.270179 57.246080 -1.854480 -10.424334 0.912595 0.017300 -0.004570 0.474090 -4.541878 -2.730390 -8.420394 23.806578 -13.731256 25.832803 -9.363273 -11.277456 15.745533 2.570840 -5.426932 -11.922983 -15.728457 7.392898 44.808176 -12.134790 6.576020 -15.718650 -4.122321 -6.161058 1.632407 13.539770 8.371783 -0.184896 -2.518950 -88.047805 2.098795 -3.502010 3.527759 0.817710 0.004460 0.231640 0.260970 -0.550086 5.463549 10.592066 10.583659 -18.655435 -1.506187 155.483690 47.581266 108.406095 1.895174 -2.273753 -0.036690 0.048470 -0.251680 -0.357420 
0.090970 15.595230 0.409280 -2.975359 -1.840897 -2.727354 -15.056447 12.670487 2.292935 1.779618 -1.586783 13.490025 -0.870806 9.553297 40.040637 0.673120 8.818449 1.784381 0.722220 0.136090 0.785720 18.783542 -8.456413 5.321966 -9.202741 7.672543 -56.380746 14.841558 -18.686282 54.815699 -1.634002 -9.715549 1.151624 -0.023950 0.043180 0.454700 -4.487857 -2.944093 -8.322418 24.378449 -13.448315 25.303495 -8.550172 -10.651647 14.166727 2.289296 -5.714188 -11.794768 -15.762101 6.427830 42.933045 -12.603920 6.445210 -13.773430 -3.043355 -5.469062 1.074575 5.643942 6.048462 -2.448890 -104.969012 -81.742927 94.554447 -3.722144 1.039635 0.758910 0.053970 0.177020 0.238690 -1.403837 5.295011 10.750055 17.968350 -15.641606 -3.540075 146.177534 49.064268 92.569174 1.875204 -2.240938 -0.044160 0.057110 -0.218310 -0.349310 
0.080200 15.769740 0.439290 -3.652156 -1.611015 -2.232160 -15.069994 13.009587 2.304909 2.843405 -1.409493 12.848000 0.021496 8.864105 37.924045 0.662016 8.399585 1.946313 0.686500 0.088930 0.763900 18.692572 -8.686671 5.055095 -7.083623 7.596333 -53.372927 13.800838 -16.790072 50.753220 -1.379880 -8.724980 1.444463 -0.068350 0.045960 0.474640 -4.330439 -3.188830 -8.188917 24.642498 -13.633012 24.806634 -7.937586 -10.462106 12.953677 2.910510 -5.744024 -12.433828 -15.630561 5.713678 41.485392 -13.697960 7.309370 -9.169530 -2.557933 -5.003593 3.273233 -5.623781 4.608739 -3.571682 -113.693546 -76.616481 94.297853 -3.674207 2.529258 0.684900 0.089080 0.149180 0.253320 -3.020223 5.307445 9.801251 28.194031 -9.701023 -6.607984 126.271783 53.069541 69.516032 1.951758 -2.237959 -0.013360 -0.031610 -0.248640 -0.330890 
